<svg width="100%" height="100%" viewBox="0 0 1593 506" fill="none" xmlns="http://www.w3.org/2000/svg">
<path d="M1115.57 406.325C1085.3 406.325 1059.35 399.248 1037.73 385.095C1016.5 370.549 1000.38 351.678 989.372 328.483C978.757 304.895 973.449 279.734 973.449 253C973.449 226.266 978.757 201.302 989.372 178.107C1000.38 154.518 1016.5 135.647 1037.73 121.494C1059.35 106.948 1085.3 99.675 1115.57 99.675C1136.8 99.675 1156.85 103.803 1175.72 112.059C1194.98 119.922 1210.91 131.519 1223.49 146.852C1236.46 162.184 1244.52 180.465 1247.67 201.695H1211.1C1207.96 182.038 1197.34 165.919 1179.26 153.339C1161.17 140.365 1139.94 133.878 1115.57 133.878C1092.77 133.878 1073.7 139.186 1058.37 149.8C1043.04 160.415 1031.44 174.765 1023.57 192.849C1016.11 210.934 1012.37 230.984 1012.37 253C1012.37 287.203 1021.22 315.706 1038.91 338.508C1056.6 360.917 1082.15 372.122 1115.57 372.122C1139.94 372.122 1160.39 366.618 1176.9 355.61C1193.81 344.602 1205.21 329.269 1211.1 309.612H1246.49C1242.95 329.663 1235.48 346.961 1224.08 361.507C1213.07 375.66 1198.33 386.668 1179.85 394.531C1161.76 402.394 1140.34 406.325 1115.57 406.325Z" fill="white"/>
<path d="M1442.44 406.325C1413.74 406.325 1387.99 399.838 1365.19 386.865C1342.39 373.498 1324.5 355.217 1311.53 332.021C1298.95 308.826 1292.66 282.486 1292.66 253C1292.66 223.514 1298.95 197.174 1311.53 173.979C1324.5 150.783 1342.39 132.699 1365.19 119.725C1387.99 106.358 1413.74 99.675 1442.44 99.675C1471.14 99.675 1496.89 106.358 1519.69 119.725C1542.5 132.699 1560.19 150.783 1572.77 173.979C1585.74 197.174 1592.23 223.514 1592.23 253C1592.23 282.486 1585.74 308.826 1572.77 332.021C1560.19 355.217 1542.5 373.498 1519.69 386.865C1496.89 399.838 1471.14 406.325 1442.44 406.325ZM1442.44 372.122C1464.07 372.122 1483.33 367.011 1500.23 356.789C1517.14 346.568 1530.11 332.415 1539.16 314.33C1548.59 296.246 1553.31 275.802 1553.31 253C1553.31 230.198 1548.59 209.754 1539.16 191.67C1530.11 173.586 1517.14 159.432 1500.23 149.211C1483.33 138.989 1464.07 133.878 1442.44 133.878C1420.82 133.878 1401.56 138.989 1384.65 149.211C1367.75 159.432 1354.58 173.586 1345.14 191.67C1336.1 209.754 1331.58 230.198 1331.58 253C1331.58 275.802 1336.1 296.246 1345.14 314.33C1354.58 332.415 1367.75 346.568 1384.65 356.789C1401.56 367.011 1420.82 372.122 1442.44 372.122Z" fill="white"/>
<path fill-rule="evenodd" clip-rule="evenodd" d="M679.221 255.949C679.737 276.657 683.377 295.527 692.075 312.561C701.51 331.038 714.484 345.584 730.996 356.199C747.508 366.814 764.555 372.122 784.605 372.122C810.553 372.122 831.586 366.618 847.705 355.61C864.217 344.208 875.028 328.286 880.139 307.843H919.06C914.342 337.722 899.796 361.703 875.421 379.788C851.439 397.479 821.168 406.325 784.605 406.325C757.086 406.325 733.355 399.641 710.946 386.275C688.93 372.515 671.632 353.84 659.051 330.252C646.471 306.27 641.414 279.733 641.414 250.641C641.414 220.762 647.311 194.422 659.105 171.62C670.9 148.817 687.412 131.126 708.641 118.546C729.795 106.01 754.071 99.7198 781.47 99.675C808.87 99.7198 833.146 106.01 854.3 118.545C875.53 131.126 892.041 148.817 903.836 171.619C915.63 194.421 921.527 220.762 921.527 250.641C921.527 252.419 921.504 254.188 921.456 255.948L679.221 255.949ZM726.922 148.031C742.574 138.64 760.756 133.923 781.47 133.878C802.185 133.923 820.367 138.64 836.019 148.031C851.351 157.466 863.146 171.03 871.402 188.721C876.285 198.953 879.724 210.354 881.719 222.924L681.222 222.925C683.217 210.354 686.656 198.953 691.54 188.721C699.796 171.03 711.59 157.466 726.922 148.031Z" fill="white"/>
<path d="M235.472 455.701C342.492 465.064 437.395 389.8 454.108 285.352C472.443 275.37 489.869 263.862 506.199 250.983C506.204 251.655 506.207 252.327 506.207 253C506.207 392.728 392.935 506 253.207 506C144.549 506 51.8827 437.5 16.0494 341.32C103.219 355.149 195.691 332.556 268.616 271.364C325.613 223.538 361.467 159.853 375.132 92.1801L375.51 90.3077L373.973 89.173C300.093 34.6194 195.87 35.4834 122.411 97.1232C62.2858 147.574 38.6801 225.391 54.5095 297.059C37.123 296.33 19.8216 293.917 2.86994 289.843C1.1156 277.817 0.207031 265.516 0.207031 253C0.207031 113.272 113.479 0 253.207 0C319.636 0 380.08 25.5978 425.223 67.4732C415.738 157.346 372.76 243.787 298.067 306.462C241.936 353.562 175.703 380.689 107.993 388.607L102.011 389.306L106.173 393.66C139.116 428.121 184.247 451.22 235.472 455.701Z" fill="white"/>
</svg>
